<?xml version="1.0" encoding="UTF-8"?>
<svg id="Layer_1" xmlns="http://www.w3.org/2000/svg" version="1.1" viewBox="0 0 338.4 38">
  <!-- Generator: Adobe Illustrator 30.1.0, SVG Export Plug-In . SVG Version: 2.1.1 Build 136)  -->
  <defs>
    <style>
      .st0 {
        fill: #29b5e8;
      }
    </style>
  </defs>
  <path class="st0" d="M6.4,17.5c-1.8-.5-2.2-.8-2.2-1.4,0-.9,1-1.1,1.6-1.1,1.8,0,3,1,3,1h.2c0,.1,1.5-2.2,1.5-2.2h-.1c0-.2-1.3-1.4-4.6-1.4-3,0-4.8,1.4-4.8,3.9s2,3.3,4.2,4c2,.6,2.3,1,2.3,1.6,0,1-.9,1.2-1.7,1.2-1.8,0-3.3-1.2-3.3-1.2h-.1c0-.1-1.6,2.1-1.6,2.1h.1c0,.2,1.7,1.8,5,1.8s4.9-2.1,4.9-4.1-1.3-3.2-4.4-4.1h0Z"/>
  <path class="st0" d="M20.8,20.2l-6.2-7.6h0c0,0-2.2,0-2.2,0v12.8h2.9v-7.7l6.2,7.7h2.2v-12.8h-2.9v7.6Z"/>
  <path class="st0" d="M31.8,12.3c-3.7,0-6.4,2.9-6.4,6.7s2.8,6.7,6.4,6.7,6.5-2.8,6.5-6.7-2.7-6.7-6.5-6.7ZM31.8,22.9c-2,0-3.5-1.6-3.5-3.9s1.5-3.9,3.5-3.9,3.5,1.6,3.5,3.9-1.5,3.9-3.5,3.9Z"/>
  <path class="st0" d="M49.9,19.9l-2.1-7.3h-2.2l-2.1,7.2-1.9-7.2h-3.1l3.9,12.8h2.2l2.1-7.5,2.2,7.5h2.2l3.9-12.8h-3.1l-1.9,7.3Z"/>
  <path class="st0" d="M61.6,12.6h-5.4v12.8h2.9v-4h2.6c3,0,4.9-1.7,4.9-4.4s-2-4.4-4.9-4.4ZM59,15.2h2.4c.8,0,2.1.2,2.1,1.8s-1.3,1.8-2.1,1.8h-2.4v-3.6Z"/>
  <path class="st0" d="M70.6,12.6l-5,12.8h3l.9-2.4h5.1l.9,2.4h3l-5-12.8h-2.9,0ZM73.7,20.6h-3.3l1.7-4.5,1.7,4.5Z"/>
  <path class="st0" d="M89.8,16.9c0-2.6-2-4.4-4.9-4.4h-5.4v12.8h2.9v-4.1h2.1l2.8,4.1h3.1v-.5l-2.9-4.1c1.5-.7,2.4-2.1,2.4-3.9h0ZM82.3,15.2h2.4c.8,0,2.1.2,2.1,1.8s-.8,1.8-2.1,1.8h-2.5v-3.6Z"/>
  <path class="st0" d="M102.9,13.1v-.5h-3.3l-5,5.5v-5.5h-2.9v12.8h2.9v-3.2l1.8-1.9c1.3,1.9,3.4,5.1,3.4,5.1h0c0,0,3.1,0,3.1,0v-.5l-4.6-6.8,4.5-5h0Z"/>
  <path class="st0" d="M118.6,12.6l-4,5.4-4-5.4h-2.2v12.8h2.8v-7.4l2.8,3.8h1.2l2.8-3.8v7.4h2.8v-12.8h-2.2Z"/>
  <path class="st0" d="M126.2,12.6h-2.9v12.8h2.9v-12.8Z"/>
  <path class="st0" d="M133.8,20.2h3.3c0,1.7-1.2,2.7-2.8,2.7s-3.5-1.6-3.5-3.9,1.4-3.9,3.5-3.9,2.8,1,2.8,1v.2c.1,0,1.9-2.2,1.9-2.2h0c0-.2-1.4-1.8-4.6-1.8s-6.5,2.7-6.5,6.7,2.6,6.7,6.4,6.7,5.9-2.4,5.9-6.1v-1.7h-6.4v2.4h0Z"/>
  <path class="st0" d="M152.1,16.9c0-2.6-2-4.4-4.9-4.4h-5.4v12.8h2.9v-4.1h2.1l2.8,4.1h3.1v-.5l-2.8-4.1c1.5-.7,2.4-2.1,2.4-3.9h0ZM144.6,15.2h2.4c.8,0,2.1.2,2.1,1.8s-.8,1.8-2.1,1.8h-2.5v-3.6Z"/>
  <path class="st0" d="M157.9,12.6l-5,12.8h3l.9-2.4h5.1l.9,2.4h3l-5-12.8h-2.9,0ZM161,20.6h-3.3l1.7-4.5,1.7,4.5Z"/>
  <path class="st0" d="M164.4,15.2h3.7v10.2h2.9v-10.2h3.7v-2.6h-10.2v2.6Z"/>
  <path class="st0" d="M179,12.6h-2.9v12.8h2.9v-12.8Z"/>
  <path class="st0" d="M187.2,12.3c-3.7,0-6.4,2.9-6.4,6.7s2.8,6.7,6.4,6.7,6.5-2.8,6.5-6.7-2.7-6.7-6.5-6.7ZM187.2,22.9c-2,0-3.5-1.6-3.5-3.9s1.5-3.9,3.5-3.9,3.5,1.6,3.5,3.9-1.5,3.9-3.5,3.9Z"/>
  <path class="st0" d="M203.7,20.2l-6.2-7.6h0c0,0-2.2,0-2.2,0v12.8h2.9v-7.7l6.2,7.7h2.2v-12.8h-2.9v7.6Z"/>
  <path class="st0" d="M216.2,12.6l-5,12.8h3l.9-2.4h5.1l.9,2.4h3l-5-12.8h-2.9,0ZM219.3,20.6h-3.3l1.7-4.5,1.7,4.5Z"/>
  <path class="st0" d="M230.4,15.1c1.7,0,2.6,1,2.6,1v.2c.1,0,1.8-2.2,1.8-2.2h0c0-.2-1.4-1.7-4.3-1.7s-6.5,2.7-6.5,6.7,2.7,6.7,6.5,6.7,4.3-1.6,4.3-1.6h0c0-.1-1.7-2.3-1.7-2.3v.2c-.1,0-1.1,1-2.7,1s-3.6-1.7-3.6-3.9,1.5-3.9,3.6-3.9h0Z"/>
  <path class="st0" d="M241.6,15.1c1.7,0,2.6,1,2.6,1v.2c.1,0,1.8-2.2,1.8-2.2h0c0-.2-1.4-1.7-4.3-1.7s-6.5,2.7-6.5,6.7,2.7,6.7,6.5,6.7,4.3-1.6,4.3-1.6h0c0-.1-1.7-2.3-1.7-2.3v.2c-.1,0-1.1,1-2.7,1s-3.6-1.7-3.6-3.9,1.5-3.9,3.6-3.9h0Z"/>
  <path class="st0" d="M247.2,25.4h9.2v-2.6h-6.4v-2.7h5.4v-2.4h-5.4v-2.6h6.4v-2.6h-9.2v12.8Z"/>
  <path class="st0" d="M261.1,12.6h-2.9v12.8h8.7v-2.6h-5.8v-10.2Z"/>
  <path class="st0" d="M268.5,25.4h9.2v-2.6h-6.4v-2.7h5.4v-2.4h-5.4v-2.6h6.4v-2.6h-9.2v12.8Z"/>
  <path class="st0" d="M289.9,16.9c0-2.6-2-4.4-4.9-4.4h-5.4v12.8h2.9v-4.1h2.1l2.8,4.1h3.1v-.5l-2.9-4.1c1.5-.7,2.4-2.1,2.4-3.9h0ZM282.4,15.2h2.4c.8,0,2.1.2,2.1,1.8s-.8,1.8-2.1,1.8h-2.5v-3.6Z"/>
  <path class="st0" d="M295.6,12.6l-5,12.8h3l.9-2.4h5.1l.9,2.4h3l-5-12.8h-2.9,0ZM298.7,20.6h-3.3l1.7-4.5,1.7,4.5Z"/>
  <path class="st0" d="M302.2,15.2h3.7v10.2h2.9v-10.2h3.7v-2.6h-10.2v2.6Z"/>
  <path class="st0" d="M319.2,12.3c-3.7,0-6.4,2.9-6.4,6.7s2.8,6.7,6.4,6.7,6.5-2.8,6.5-6.7-2.7-6.7-6.5-6.7ZM319.2,22.9c-2,0-3.5-1.6-3.5-3.9s1.5-3.9,3.5-3.9,3.5,1.6,3.5,3.9-1.5,3.9-3.5,3.9Z"/>
  <path class="st0" d="M335.2,20.8c1.5-.7,2.4-2.1,2.4-3.9,0-2.6-2-4.4-4.9-4.4h-5.4v12.8h2.9v-4.1h2.1l2.8,4.1h3.1v-.5l-2.8-4.1h0ZM330.2,15.2h2.4c.8,0,2.1.2,2.1,1.8s-.8,1.8-2.1,1.8h-2.5v-3.6Z"/>
</svg>